<?xml version="1.0" encoding="utf-8"?>
<!-- Generator: Adobe Illustrator 16.0.0, SVG Export Plug-In . SVG Version: 6.00 Build 0)  -->
<!DOCTYPE svg PUBLIC "-//W3C//DTD SVG 1.1//EN" "http://www.w3.org/Graphics/SVG/1.1/DTD/svg11.dtd">
<svg version="1.1" id="Layer_1" xmlns="http://www.w3.org/2000/svg" xmlns:xlink="http://www.w3.org/1999/xlink" x="0px" y="0px"
	 width="48px" height="48px" viewBox="0 0 48 48" enable-background="new 0 0 48 48" xml:space="preserve">
<g>
	<path d="M25.12,28.134H4.254c-1.732,0-3.132,1.413-3.132,3.145v5.993c0,1.769,1.431,3.238,3.199,3.238h21.721
		c1.769,0,3.154-1.469,3.154-3.238v-5.004C29.196,29.989,27.399,28.134,25.12,28.134z"/>
	<path d="M43.731,10.95H22.153c-1.769,0-3.141,1.351-3.141,3.119v5.408c0.213-0.069,0.577-0.119,0.927-0.146l0.876-2.63
		c0.375-1.123,1.415-1.862,2.597-1.862h5.435c0.88,0,1.712,0.412,2.226,1.125c0.514,0.714,0.655,1.631,0.377,2.465l-0.313,0.934
		c0.733,0.005,1.463,0.009,2.164,0.014l0.747-2.24c0.374-1.122,1.42-1.874,2.602-1.874h5.435c0.88,0,1.712,0.423,2.225,1.136
		c0.515,0.714,0.656,1.636,0.377,2.471l-0.262,0.802c1.019,0.286,1.814,0.827,2.521,1.552v-7.155
		C46.945,12.301,45.5,10.95,43.731,10.95z"/>
	<path d="M43.79,21.565l-0.289,0.868c-0.374,1.122-1.421,1.882-2.603,1.882h-5.435c-0.88,0-1.712-0.432-2.226-1.145
		c-0.372-0.516-0.546-1.145-0.511-1.767l-2.266-0.017l-0.199,0.612c-0.375,1.122-1.42,1.893-2.602,1.893h-5.435
		c-0.88,0-1.712-0.443-2.226-1.157c-0.28-0.389-0.448-0.849-0.5-1.313c-0.689,0.13-1.354,0.396-1.958,0.762l-6.648,4.042H25.12
		c3.395,0,6.126,2.661,6.126,6.042v5.004c0,0.756-0.15,1.475-0.445,2.123l14.572-8.721c0.944-0.567,1.572-1.588,1.572-2.688v-2.417
		C46.945,23.634,45.593,22.011,43.79,21.565z"/>
	<path d="M22.226,22.335h5.435c0.531,0,1.004-0.334,1.172-0.839l1.186-3.555c0.125-0.377,0.062-0.787-0.17-1.108
		c-0.232-0.323-0.605-0.509-1.002-0.509h-5.435c-0.532,0-1.004,0.337-1.172,0.842l-1.186,3.555c-0.126,0.377-0.063,0.786,0.17,1.107
		C21.456,22.151,21.829,22.335,22.226,22.335z"/>
	<path d="M35.463,22.76h5.435c0.531,0,1.004-0.323,1.172-0.828l1.186-3.541c0.126-0.377,0.062-0.799-0.17-1.121
		c-0.232-0.323-0.605-0.522-1.002-0.522h-5.435c-0.532,0-1.004,0.349-1.172,0.854l-1.186,3.562c-0.125,0.377-0.063,0.776,0.17,1.098
		C34.693,22.584,35.066,22.76,35.463,22.76z"/>
</g>
</svg>
