<?xml version="1.0" encoding="iso-8859-1"?>
<!-- Generator: Adobe Illustrator 17.1.0, SVG Export Plug-In . SVG Version: 6.00 Build 0)  -->
<!DOCTYPE svg PUBLIC "-//W3C//DTD SVG 1.1//EN" "http://www.w3.org/Graphics/SVG/1.1/DTD/svg11.dtd">
<svg version="1.1" id="Layer_1" xmlns="http://www.w3.org/2000/svg" xmlns:xlink="http://www.w3.org/1999/xlink" x="0px" y="0px"
	 viewBox="0 0 64 64" style="enable-background:new 0 0 64 64;" xml:space="preserve">
<g>
	<path d="M52.021,10.364l-9.866,8.5c-3.221-2.167-8.377,0.719-8.377,0.719l7.191,7.191l1.863,1.863
		c0.722-1.495,2.04-4.726,1.135-7.375L53.557,13H64v-3H53C52.641,10,52.293,10.129,52.021,10.364z"/>
	<path d="M42.757,29.976L32.273,19.493c-1.841,0.224-9.037,4.704-10.334,6.636l14.172,14.172
		C38.098,38.979,42.623,31.588,42.757,29.976z"/>
	<path d="M21.5,32.601c0.128,0,0.256-0.049,0.354-0.146l2.121-2.122c0.195-0.195,0.195-0.512,0-0.707s-0.512-0.195-0.707,0
		l-2.121,2.122c-0.195,0.195-0.195,0.512,0,0.707C21.244,32.552,21.372,32.601,21.5,32.601z"/>
	<path d="M17.965,36.136c0.128,0,0.256-0.049,0.354-0.146l2.121-2.122c0.195-0.195,0.195-0.512,0-0.707s-0.512-0.195-0.707,0
		l-2.121,2.122c-0.195,0.195-0.195,0.512,0,0.707C17.709,36.087,17.837,36.136,17.965,36.136z"/>
	<path d="M14.429,39.671c0.128,0,0.256-0.049,0.354-0.146l2.121-2.121c0.195-0.195,0.195-0.512,0-0.707s-0.512-0.195-0.707,0
		l-2.121,2.121c-0.195,0.195-0.195,0.512,0,0.707C14.173,39.623,14.301,39.671,14.429,39.671z"/>
	<path d="M10.894,43.207c0.128,0,0.256-0.049,0.354-0.146l2.121-2.121c0.195-0.195,0.195-0.512,0-0.707s-0.512-0.195-0.707,0
		l-2.121,2.121c-0.195,0.195-0.195,0.512,0,0.707C10.638,43.158,10.766,43.207,10.894,43.207z"/>
	<path d="M26.097,32.454l-2.122,2.121c-0.195,0.195-0.195,0.512,0,0.707c0.098,0.098,0.226,0.146,0.354,0.146
		s0.256-0.049,0.354-0.146l2.122-2.121c0.195-0.195,0.195-0.512,0-0.707S26.292,32.259,26.097,32.454z"/>
	<path d="M22.561,35.99l-2.121,2.121c-0.195,0.195-0.195,0.512,0,0.707c0.098,0.098,0.226,0.146,0.354,0.146
		s0.256-0.049,0.354-0.146l2.121-2.121c0.195-0.195,0.195-0.512,0-0.707S22.756,35.794,22.561,35.99z"/>
	<path d="M19.025,39.525l-2.121,2.121c-0.195,0.195-0.195,0.512,0,0.707c0.098,0.098,0.226,0.146,0.354,0.146
		s0.256-0.049,0.354-0.146l2.121-2.121c0.195-0.195,0.195-0.512,0-0.707S19.221,39.33,19.025,39.525z"/>
	<path d="M16.196,43.061c-0.195-0.195-0.512-0.195-0.707,0l-2.121,2.122c-0.195,0.195-0.195,0.512,0,0.707
		c0.098,0.098,0.226,0.146,0.354,0.146s0.256-0.049,0.354-0.146l2.121-2.122C16.392,43.572,16.392,43.256,16.196,43.061z"/>
	<path d="M28.925,35.283l-2.121,2.121c-0.195,0.195-0.195,0.512,0,0.707c0.098,0.098,0.226,0.146,0.354,0.146
		s0.256-0.049,0.354-0.146l2.121-2.121c0.195-0.195,0.195-0.512,0-0.707S29.12,35.087,28.925,35.283z"/>
	<path d="M23.268,41.646c0.098,0.098,0.226,0.146,0.354,0.146s0.256-0.049,0.354-0.146l2.121-2.122c0.195-0.195,0.195-0.512,0-0.707
		s-0.512-0.195-0.707,0l-2.121,2.122C23.072,41.135,23.072,41.451,23.268,41.646z"/>
	<path d="M19.732,45.182c0.098,0.098,0.226,0.146,0.354,0.146s0.256-0.049,0.354-0.146l2.121-2.122c0.195-0.195,0.195-0.512,0-0.707
		s-0.512-0.195-0.707,0l-2.121,2.122C19.537,44.67,19.537,44.987,19.732,45.182z"/>
	<path d="M16.55,48.864c0.128,0,0.256-0.049,0.354-0.146l2.122-2.121c0.195-0.195,0.195-0.512,0-0.707s-0.512-0.195-0.707,0
		l-2.122,2.121c-0.195,0.195-0.195,0.512,0,0.707C16.294,48.815,16.422,48.864,16.55,48.864z"/>
	<path d="M29.632,40.939c0.098,0.098,0.226,0.146,0.354,0.146s0.256-0.049,0.354-0.146l2.121-2.122c0.195-0.195,0.195-0.512,0-0.707
		s-0.512-0.195-0.707,0l-2.121,2.122C29.437,40.428,29.437,40.744,29.632,40.939z"/>
	<path d="M28.218,41.646l-2.121,2.121c-0.195,0.195-0.195,0.512,0,0.707c0.098,0.098,0.226,0.146,0.354,0.146
		s0.256-0.049,0.354-0.146l2.121-2.121c0.195-0.195,0.195-0.512,0-0.707S28.413,41.451,28.218,41.646z"/>
	<path d="M24.682,45.182l-2.121,2.121c-0.195,0.195-0.195,0.512,0,0.707c0.098,0.098,0.226,0.146,0.354,0.146
		s0.256-0.049,0.354-0.146l2.121-2.121c0.195-0.195,0.195-0.512,0-0.707S24.877,44.987,24.682,45.182z"/>
	<path d="M21.146,48.718l-2.121,2.121c-0.195,0.195-0.195,0.512,0,0.707c0.098,0.098,0.226,0.146,0.354,0.146
		s0.256-0.049,0.354-0.146l2.121-2.121c0.195-0.195,0.195-0.512,0-0.707S21.342,48.522,21.146,48.718z"/>
</g>
</svg>
